<?xml version="1.0" encoding="UTF-8"?>
<svg xmlns="http://www.w3.org/2000/svg" xmlns:xlink="http://www.w3.org/1999/xlink" viewBox="0 0 48 48" width="48px" height="48px">
<g id="surface61126963">
<path style=" stroke:none;fill-rule:evenodd;fill:rgb(89.803922%,88.627452%,88.627452%);fill-opacity:1;" d="M 45.5 15.5 L 2.5 15.5 L 2.5 40 C 2.5 41.457031 3.078125 42.859375 4.109375 43.890625 C 5.140625 44.921875 6.542969 45.5 8 45.5 C 15.664062 45.5 32.335938 45.5 40 45.5 C 41.457031 45.5 42.859375 44.921875 43.890625 43.890625 C 44.921875 42.859375 45.5 41.457031 45.5 40 Z M 12 37.5 L 34 37.5 C 34.828125 37.5 35.5 36.828125 35.5 36 C 35.5 35.171875 34.828125 34.5 34 34.5 L 12 34.5 C 11.171875 34.5 10.5 35.171875 10.5 36 C 10.5 36.828125 11.171875 37.5 12 37.5 Z M 32 31.5 L 34 31.5 C 34.828125 31.5 35.5 30.828125 35.5 30 C 35.5 29.171875 34.828125 28.5 34 28.5 L 32 28.5 C 31.171875 28.5 30.5 29.171875 30.5 30 C 30.5 30.828125 31.171875 31.5 32 31.5 Z M 12 31.5 L 27 31.5 C 27.828125 31.5 28.5 30.828125 28.5 30 C 28.5 29.171875 27.828125 28.5 27 28.5 L 12 28.5 C 11.171875 28.5 10.5 29.171875 10.5 30 C 10.5 30.828125 11.171875 31.5 12 31.5 Z M 12 23.5 L 22 23.5 C 22.828125 23.5 23.5 22.828125 23.5 22 C 23.5 21.171875 22.828125 20.5 22 20.5 L 12 20.5 C 11.171875 20.5 10.5 21.171875 10.5 22 C 10.5 22.828125 11.171875 23.5 12 23.5 Z M 2.5 12.5 L 45.5 12.5 L 45.5 8 C 45.5 6.542969 44.921875 5.140625 43.890625 4.109375 C 42.859375 3.078125 41.457031 2.5 40 2.5 C 32.335938 2.5 15.664062 2.5 8 2.5 C 6.542969 2.5 5.140625 3.078125 4.109375 4.109375 C 3.078125 5.140625 2.5 6.542969 2.5 8 Z M 16 9.5 L 18 9.5 C 18.828125 9.5 19.5 8.828125 19.5 8 C 19.5 7.171875 18.828125 6.5 18 6.5 L 16 6.5 C 15.171875 6.5 14.5 7.171875 14.5 8 C 14.5 8.828125 15.171875 9.5 16 9.5 Z M 23 9.5 L 25 9.5 C 25.828125 9.5 26.5 8.828125 26.5 8 C 26.5 7.171875 25.828125 6.5 25 6.5 L 23 6.5 C 22.171875 6.5 21.5 7.171875 21.5 8 C 21.5 8.828125 22.171875 9.5 23 9.5 Z M 9 9.5 L 11 9.5 C 11.828125 9.5 12.5 8.828125 12.5 8 C 12.5 7.171875 11.828125 6.5 11 6.5 L 9 6.5 C 8.171875 6.5 7.5 7.171875 7.5 8 C 7.5 8.828125 8.171875 9.5 9 9.5 Z M 9 9.5 "/>
</g>
</svg>
