<?xml version="1.0" encoding="UTF-8"?>
<svg xmlns="http://www.w3.org/2000/svg" xmlns:xlink="http://www.w3.org/1999/xlink" viewBox="0 0 24 24" width="24px" height="24px">
<g id="surface61088117">
<path style=" stroke:none;fill-rule:nonzero;fill:rgb(89.803922%,88.627452%,88.627452%);fill-opacity:1;" d="M 12 2 C 11.734375 2 11.476562 2.105469 11.289062 2.296875 L 1.203125 11.097656 C 1.074219 11.191406 1 11.339844 1 11.5 C 1 11.777344 1.222656 12 1.5 12 L 4 12 L 4 20 C 4 20.550781 4.449219 21 5 21 L 8 21 C 8.550781 21 9 20.550781 9 20 L 9 14 L 15 14 L 15 20 C 15 20.550781 15.449219 21 16 21 L 19 21 C 19.550781 21 20 20.550781 20 20 L 20 12 L 22.5 12 C 22.777344 12 23 11.777344 23 11.5 C 23 11.339844 22.925781 11.191406 22.796875 11.097656 L 19 7.785156 L 19 5 C 19 4.449219 18.550781 4 18 4 C 17.449219 4 17 4.449219 17 5 L 17 6.039062 L 12.71875 2.300781 C 12.714844 2.300781 12.714844 2.296875 12.710938 2.296875 C 12.523438 2.105469 12.265625 2 12 2 Z M 12 2 "/>
</g>
</svg>
