<?xml version="1.0" encoding="UTF-8"?>
<svg xmlns="http://www.w3.org/2000/svg" xmlns:xlink="http://www.w3.org/1999/xlink" viewBox="0 0 64 64" width="64px" height="64px">
<g id="surface61105934">
<path style=" stroke:none;fill-rule:nonzero;fill:rgb(89.803922%,88.627452%,88.627452%);fill-opacity:1;" d="M 25.644531 9 C 23.207031 8.996094 21.125 10.75 20.714844 13.148438 C 20.714844 13.152344 20.714844 13.160156 20.714844 13.164062 L 20.261719 15.960938 L 10.738281 15.960938 C 8.667969 15.960938 6.992188 17.640625 6.988281 19.710938 L 6.988281 24.230469 L 24.5625 33.417969 L 24.5625 31.210938 C 24.5625 30.519531 25.121094 29.960938 25.8125 29.960938 L 38.3125 29.960938 C 39 29.960938 39.5625 30.519531 39.5625 31.210938 L 39.5625 33.421875 L 57.011719 24.355469 L 57.011719 19.710938 C 57.007812 17.640625 55.332031 15.960938 53.261719 15.960938 L 43.984375 15.960938 L 43.53125 13.164062 C 43.53125 13.160156 43.527344 13.152344 43.527344 13.148438 C 43.117188 10.75 41.035156 8.996094 38.601562 9 Z M 25.640625 11.5 C 25.640625 11.5 25.640625 11.5 25.644531 11.5 L 38.601562 11.5 C 39.816406 11.496094 40.855469 12.371094 41.0625 13.570312 L 41.449219 15.960938 L 22.792969 15.960938 L 23.179688 13.570312 C 23.386719 12.371094 24.425781 11.5 25.640625 11.5 Z M 6.988281 27.050781 L 6.988281 51.25 C 6.992188 53.320312 8.667969 54.996094 10.738281 55 L 53.261719 55 C 55.332031 54.996094 57.007812 53.320312 57.011719 51.25 L 57.011719 27.171875 L 39.5625 36.238281 L 39.5625 37.859375 C 39.558594 41.308594 36.761719 44.105469 33.3125 44.109375 L 30.8125 44.109375 C 27.359375 44.105469 24.566406 41.308594 24.5625 37.859375 L 24.5625 36.238281 Z M 27.0625 32.460938 L 27.0625 37.859375 C 27.0625 39.929688 28.742188 41.609375 30.8125 41.609375 L 33.3125 41.609375 C 35.382812 41.609375 37.058594 39.929688 37.0625 37.859375 L 37.0625 32.460938 Z M 27.0625 32.460938 "/>
</g>
</svg>
