<?xml version="1.0" encoding="UTF-8"?>
<svg xmlns="http://www.w3.org/2000/svg" xmlns:xlink="http://www.w3.org/1999/xlink" viewBox="0 0 32 32" width="32px" height="32px">
<g id="surface61097067">
<path style=" stroke:none;fill-rule:nonzero;fill:rgb(89.803922%,88.627452%,88.627452%);fill-opacity:1;" d="M 16 5 C 12.144531 5 9 8.144531 9 12 C 9 14.410156 10.230469 16.550781 12.09375 17.8125 C 8.527344 19.34375 6 22.882812 6 27 L 8 27 C 8 24.46875 9.171875 22.214844 11 20.75 L 15.3125 24.71875 L 16 25.375 L 16.6875 24.71875 L 21 20.75 C 22.828125 22.214844 24 24.46875 24 27 L 26 27 C 26 22.882812 23.472656 19.34375 19.90625 17.8125 C 21.769531 16.550781 23 14.410156 23 12 C 23 8.144531 19.855469 5 16 5 Z M 16 7 C 18.773438 7 21 9.226562 21 12 C 21 14.773438 18.773438 17 16 17 C 13.226562 17 11 14.773438 11 12 C 11 9.226562 13.226562 7 16 7 Z M 16 19 C 17.144531 19 18.238281 19.226562 19.21875 19.65625 L 16 22.65625 L 12.78125 19.65625 C 13.761719 19.226562 14.855469 19 16 19 Z M 16 19 "/>
</g>
</svg>
